<?xml version="1.0" encoding="UTF-8"?>
<svg width="180px" height="171px" viewBox="0 0 180 171" version="1.1" xmlns="http://www.w3.org/2000/svg" xmlns:xlink="http://www.w3.org/1999/xlink">
    <!-- Generator: Sketch 46.2 (44496) - http://www.bohemiancoding.com/sketch -->
    <title>logo-krypton-vertical</title>
    <desc>Created with Sketch.</desc>
    <defs></defs>
    <g id="Symbols" stroke="none" stroke-width="1" fill="none" fill-rule="evenodd">
        <g id="Logo-Vertical" fill="#A89783">
            <g id="Logo">
                <polygon id="Fill-1" points="72.0003583 0 56 15.9992835 56 63.9899687 72.0003583 80 88 63.9899687 88 45.1819077 80.4917923 52.6889386 80.4917923 60.8845499 72.0003583 69.3746529 63.5082077 60.8845499 63.5082077 19.1047022 72.0003583 10.6131661 80.4917923 19.1047022 80.4917923 25.9897895 88 18.4892073 88 15.9992835"></polygon>
                <polygon id="Fill-2" points="73 38.0021498 73 56.812612 80.5080396 49.3049086 80.5080396 41.1085632 89.0028665 32.6141168 97.4919604 41.070584 97.4919604 82.8950197 88.9992834 91.3865998 80.5080396 82.8885704 80.5080396 76.0164815 73 83.5234683 73 85.9957005 88.9992834 102 105 86.0014332 105 37.9964171 89.0028665 22"></polygon>
                <polygon id="Fill-3" points="125 113 103 113 103 119.605539 110.291776 119.605539 110.291776 151 117.707499 151 117.707499 119.605539 125 119.605539"></polygon>
                <polygon id="Fill-4" points="14.5808557 131.475956 20.4720812 125.635996 20.4720812 113 13.0529369 113 13.0529369 124.78703 8.94778825 128.867239 7.41914431 128.867239 7.41914431 113 0 113 0 151 7.41914431 151 7.41914431 135.303129 8.94778825 135.303129 14.5808557 140.889334 14.5808557 151 22 151 22 138.826946"></polygon>
                <path d="M86.5133235,128.884492 L92.4866765,128.884492 L92.4866765,119.605539 L86.5133235,119.605539 L86.5133235,128.884492 Z M94.5752203,113 L79,113 L79,151 L86.5133235,151 L86.5133235,135.303129 L94.5752203,135.303129 L100,130.010215 L100,118.292195 L94.5752203,113 Z" id="Fill-5"></path>
                <polygon id="Fill-6" points="65.702828 113 65.702828 127.597745 64.426126 128.884492 61.5753005 128.884492 60.2978852 127.597026 60.2978852 113 53 113 53 129.66229 59.351414 136.056487 59.351414 151 66.648586 151 66.648586 136.057206 73 129.655821 73 113"></polygon>
                <path d="M140.9982,143.349804 L137.367418,139.76502 L137.364538,122.207252 L140.9982,118.619623 L144.633302,122.207963 L144.633302,139.760754 L140.9982,143.349804 Z M142.705574,111 L139.294426,111 L130,120.177391 L130,141.82332 L139.294426,151 L142.705574,151 L152,141.82332 L152,120.177391 L142.705574,111 Z" id="Fill-7"></path>
                <polygon id="Fill-8" points="172.821008 113 172.821008 133.756876 164.178992 113 157 113 157 151 164.178992 151 164.178992 130.244561 172.821008 151 180 151 180 113"></polygon>
                <path d="M40.1591398,119.609852 L40.1591398,128.884492 L34.3340502,128.884492 L34.3340502,119.606258 L40.1591398,119.606258 L40.1591398,119.609852 Z M48.9935484,139.050509 L48.9985663,139.049071 L44.9698925,135.009837 L44.9698925,132.910787 L47.49319,130.385456 L47.49319,118.296508 L42.2121864,113 L27,113 L27,151 L34.3340502,151 L34.3340502,135.303129 L35.8394265,135.267186 L41.6659498,141.110022 L41.6659498,151 L49,151 L49,139.049071 L48.9935484,139.050509 Z" id="Fill-9"></path>
                <path d="M32.5200886,160.691144 L32.4900205,161.786331 C31.9881682,161.698331 31.1670205,161.552581 30.4217591,161.552581 C29.0386227,161.552581 28.4759182,162.049644 28.4759182,163.319456 L28.4759182,167.495331 C28.4759182,168.751394 29.0235886,169.247769 30.4217591,169.247769 C31.1670205,169.247769 31.9881682,169.102019 32.4900205,169.013331 L32.5200886,170.138769 C31.8514295,170.241206 31.1061682,170.372519 30.4217591,170.372519 C28.0191682,170.372519 27.1829864,169.379769 27.1829864,167.422456 L27.1829864,163.406769 C27.1829864,161.421269 28.0499523,160.457394 30.4217591,160.457394 C31.1061682,160.457394 31.8514295,160.589394 32.5200886,160.691144 Z" id="Fill-10"></path>
                <path d="M48.9073193,166.867231 L51.933467,166.867231 L50.4279102,161.771481 L48.9073193,166.867231 Z M54.3052739,170.197481 L52.9063875,170.197481 L52.2527625,167.976856 L48.5880239,167.976856 L47.9343989,170.197481 L46.6113989,170.197481 L49.6525807,160.632981 L51.249058,160.632981 L54.3052739,170.197481 Z" id="Fill-12"></path>
                <path d="M69.9780989,161.552513 L69.9780989,165.159138 C70.661792,165.247138 71.0118716,165.276013 71.3762693,165.276013 C72.836008,165.276013 73.5669511,164.662075 73.5669511,163.421825 L73.5669511,163.173638 C73.5669511,162.092888 72.8968602,161.5092 71.2853489,161.5092 C70.6166898,161.5092 70.3124284,161.523638 69.9780989,161.552513 M74.8584511,163.129638 L74.8584511,163.480263 C74.8584511,165.262263 73.7795761,166.342325 71.4371216,166.342325 C70.9961216,166.342325 70.5558375,166.312763 69.9780989,166.22545 L69.9780989,170.197138 L68.685167,170.197138 L68.685167,160.544637 C69.4604966,160.501325 70.2358261,160.47245 71.315417,160.457325 C73.7638261,160.427763 74.8584511,161.450762 74.8584511,163.129638" id="Fill-14"></path>
                <polygon id="Fill-16" points="89.496 170.197 90.7889318 170.197 90.7889318 160.6325 89.496 160.6325"></polygon>
                <polygon id="Fill-18" points="112.499161 161.756631 109.609752 161.756631 109.609752 170.197069 108.317536 170.197069 108.317536 161.756631 105.428127 161.756631 105.428127 160.632569 112.499161 160.632569"></polygon>
                <path d="M127.578713,166.867231 L130.60486,166.867231 L129.099303,161.771481 L127.578713,166.867231 Z M132.976667,170.197481 L131.578497,170.197481 L130.924156,167.976856 L127.259417,167.976856 L126.605792,170.197481 L125.282792,170.197481 L128.323258,160.632981 L129.920451,160.632981 L132.976667,170.197481 Z" id="Fill-19"></path>
                <polygon id="Fill-20" points="148.649063 169.102294 152.601597 169.102294 152.601597 170.197481 147.356131 170.197481 147.356131 160.632981 148.649063 160.632981"></polygon>
            </g>
        </g>
    </g>
</svg>