<svg width="216" height="64" viewBox="0 0 216 64" fill="none" xmlns="http://www.w3.org/2000/svg">
<path d="M33.8885 44.3061C40.0336 44.3061 43.7501 42.8342 45.9211 39.7801C45.9211 41.1416 45.9947 42.4294 46.1787 43.6069H49.8216C49.4904 41.6935 49.4168 40.4424 49.4168 36.9835V32.2735C49.4168 27.1955 45.4795 24.5094 37.973 24.5094C30.724 24.5094 26.014 27.3059 25.4252 31.3536H29.2889C29.8776 28.6306 32.9318 27.1955 37.973 27.1955C42.9405 27.1955 45.8843 28.925 45.8843 31.8687V32.2367L34.4037 32.8991C29.7305 33.1566 28.001 33.819 26.6763 34.7757C25.4252 35.6956 24.7261 37.1307 24.7261 38.7866C24.7261 42.2823 28.3322 44.3061 33.8885 44.3061ZM35.066 41.6935C30.7976 41.6935 28.4426 40.7 28.4426 38.713C28.4426 36.5787 29.9144 35.622 35.1028 35.2909L45.8843 34.6285V35.4748C45.8843 39.3385 41.3583 41.6935 35.066 41.6935Z" fill="#132659"/>
<path d="M58.892 25.2085H55.6539V43.6069H59.1496V36.7259C59.1496 34.0766 59.6647 31.8319 61.1366 30.2865C62.4245 28.8514 64.0804 28.0419 66.9873 28.0419C67.9808 28.0419 68.6064 28.1155 69.4527 28.2626V24.8773C68.68 24.6933 68.0176 24.6565 67.0241 24.6565C63.0868 24.6565 59.9591 26.9748 58.892 30.5441V25.2085Z" fill="#132659"/>
<path d="M83.1567 44.3061C89.7433 44.3061 94.4165 41.8407 95.7412 37.6091L92.0615 37.0571C90.7 39.9273 87.7931 41.3991 83.2671 41.3991C77.4899 41.3991 73.9574 38.7498 73.9574 34.4077C73.9574 29.9185 77.306 27.4163 83.2303 27.4163C88.0139 27.4163 90.8472 28.8882 91.9143 31.9791L95.8148 31.464C94.3797 26.754 90.2953 24.5094 83.3774 24.5094C75.3925 24.5094 70.241 28.373 70.241 34.4077C70.241 40.4056 75.3557 44.3061 83.1567 44.3061Z" fill="#132659"/>
<path d="M103.853 43.6069V35.3276C103.853 30.6544 107.644 27.4899 113.163 27.4899C118.683 27.4899 121.626 30.5073 121.626 36.2108V43.6069H125.122V35.7324C125.122 28.373 121.332 24.5094 114.157 24.5094C109.483 24.5094 105.804 26.386 103.853 29.6977V16.9292H100.358V43.6069H103.853Z" fill="#132659"/>
<path d="M135.107 21.86V17.5915H130.912V21.86H135.107ZM134.776 43.6069V25.2085H131.28V43.6069H134.776Z" fill="#132659"/>
<path d="M153.236 43.6069L164.57 25.2085H160.559L151.801 39.6329C151.544 40.0377 151.397 40.4056 151.249 40.7736H151.213C151.065 40.4056 150.918 40.0377 150.661 39.6329L141.903 25.2085H137.892L149.225 43.6069H153.236Z" fill="#132659"/>
<path d="M190.801 34.0766C190.801 28.1155 185.797 24.5094 177.775 24.5094C170.195 24.5094 164.859 27.9315 164.859 34.6285C164.859 40.6632 169.974 44.3061 178.033 44.3061C183.994 44.3061 188.005 42.5398 190.47 39.0441L187.489 37.6091C185.686 40.148 182.559 41.4359 178.069 41.4359C172.145 41.4359 168.76 39.1545 168.502 35.4012H190.801V34.0766ZM168.502 32.8255C168.833 29.293 172.476 27.0483 177.775 27.0483C182.853 27.0483 187.085 29.109 187.121 32.7887V32.8255H168.502Z" fill="#132659"/>
<path d="M32 2H183.239C199.808 2 213.239 15.4315 213.239 32C213.239 48.5685 199.808 62 183.239 62H32C15.4315 62 2 48.5685 2 32C2 15.4315 15.4315 2 32 2Z" stroke="#132659" stroke-width="4"/>
</svg>
