<svg width="52" height="67" viewBox="0 0 52 67" fill="none" xmlns="http://www.w3.org/2000/svg">
<path d="M10.3719 40C9.88072 40 9.38956 39.8907 8.92072 39.694C7.17933 38.9073 6.42026 36.8968 7.22398 35.1922L22.8519 1.97475C23.6556 0.270173 25.7096 -0.472849 27.451 0.31388C29.1924 1.10061 29.9514 3.11114 29.1477 4.81572L13.5198 38.0332C12.9393 39.2788 11.6891 40 10.3719 40Z" fill="url(#paint0_linear)"/>
<path d="M26 26.888C13.6316 26.888 7.71535 20.3975 4.92465 14.9559C2.02233 9.29583 2 3.63575 2 3.39536C2 1.51595 3.54046 0.00805664 5.46047 0.00805664C7.35814 0.00805664 8.92093 1.51595 8.92093 3.39536C8.92093 3.50463 8.98791 7.8972 11.2205 12.1368C14.0112 17.4472 18.9898 20.1352 26 20.1352C33.0102 20.1352 37.9888 17.4472 40.7795 12.1368C43.0121 7.87535 43.0791 3.43907 43.0791 3.39536C43.0791 1.51595 44.6195 0.00805664 46.5395 0.00805664C48.4595 0.00805664 50 1.53781 50 3.39536C50 3.63575 49.9777 9.29583 47.0753 14.9559C44.2846 20.3975 38.3684 26.888 26 26.888Z" fill="white"/>
<path d="M41.6277 40C40.3105 40 39.0603 39.2788 38.4798 38.0332L22.8519 4.81572C22.0482 3.11114 22.8073 1.10061 24.5487 0.31388C26.29 -0.472849 28.344 0.270173 29.1477 1.97475L44.7756 35.1922C45.5794 36.8968 44.8203 38.9073 43.0789 39.694C42.61 39.8907 42.1189 40 41.6277 40Z" fill="url(#paint1_linear)"/>
<path d="M1.89134 64L2.69247 61.6903H6.10156L6.89844 64H8.29617L5.15554 55.2727H3.63423L0.493608 64H1.89134ZM3.07599 60.5824L4.36293 56.858H4.43111L5.71804 60.5824H3.07599ZM11.4937 64.081C11.9582 64.081 12.346 63.7017 12.346 63.2287C12.346 62.7642 11.9582 62.3807 11.4937 62.3807C11.0249 62.3807 10.6414 62.7642 10.6414 63.2287C10.6414 63.7017 11.0249 64.081 11.4937 64.081ZM14.5143 56.4062H17.2331V64H18.5456V56.4062H21.2686V55.2727H14.5143V56.4062ZM23.9612 64H29.4839V62.8665H25.2779V60.1946H29.1472V59.0653H25.2779V56.4062H29.4327V55.2727H23.9612V64ZM33.1288 64L33.93 61.6903H37.3391L38.1359 64H39.5337L36.393 55.2727H34.8717L31.7311 64H33.1288ZM34.3135 60.5824L35.6004 56.858H35.6686L36.9555 60.5824H34.3135ZM41.994 55.2727V64H43.2468V57.6804H43.3278L45.9016 63.9872H46.9414L49.5153 57.6847H49.5962V64H50.8491V55.2727H49.2511L46.4727 62.0568H46.3704L43.592 55.2727H41.994Z" fill="white"/>
<defs>
<linearGradient id="paint0_linear" x1="18.1858" y1="0" x2="18.1858" y2="40" gradientUnits="userSpaceOnUse">
<stop stop-color="#FFCB24"/>
<stop offset="1" stop-color="#FF4D00"/>
</linearGradient>
<linearGradient id="paint1_linear" x1="33.8138" y1="0" x2="33.8138" y2="40" gradientUnits="userSpaceOnUse">
<stop stop-color="#FFCB24"/>
<stop offset="1" stop-color="#FF4D00"/>
</linearGradient>
</defs>
</svg>
